/* XPM */
static char * bm2icon_xpm[] = {
"32 32 9 1",
". 	c None",
"+	c #000000",
"@	c #808080",
"#	c #C0C0C0",
"$	c #FFFFFF",
"%	c #0000FF",
"&	c #FFFF00",
"*	c #000080",
"=	c #808000",
"................................",
"................................",
"................................",
"+++++++++++++++++++++++++++++++.",
"+++++++++++++++++++++++++++++++@",
"+++++++++++++++++++++++++++++++@",
"+++++++++++++++++++++++++++++++@",
"+#############################+@",
"+###########################@#+@",
"+##+++++++++++++++++++++++++@#+@",
"+##+++++++++++++++++++++++++@#+@",
"+##+++++++++++++++++++++++++@#+@",
"+##+++++++++++++++++++++++++@#+@",
"+##+++++++++++++++++++++++++@#+@",
"+##+++$#$#$#$#$#$#$#$#$#$%++@#+@",
"+##+&+@@@@@@@@@@@@@@@@@@@*++@#+@",
"+##+&+%#$#$#$#$#$#$#$#$%%%%+@#+@",
"+##+=+*@@@@@@@@@@@@@@@@****+@#+@",
"+##++%%%%$#$#$#$#$#$#$#%%%++@#+@",
"+##++****@@@@@@@@@@@@@@***++@#+@",
"+##+++++++$$$$$$$$$$$$++++++@#+@",
"+##+++++++############++++++@#+@",
"+##+++++++++++++++++++++++++@#+@",
"+#@@@@@@@@@@@@@@@@@@@@@@@@@@@#+@",
"+#############################+@",
"+@@@@@@@@@@@@@@@@@@@@@@@@@@@@@+@",
"+@@@@@@@@@@@@@@@@@@@@@@@@@@@@@+@",
"+++++++++++++++++++++++++++++++@",
".@@@@@@@@@@@@@@@@@@@@@@@@@@@@@@@",
"................................",
"................................",
"................................"};
